<svg width="488" height="142" viewBox="0 0 488 142" fill="none" xmlns="http://www.w3.org/2000/svg">
<path d="M402 104.451H430.982V120.306H445.442V91.6532H416.513L445.442 60H430.982L402 91.6532V104.451Z" fill="white"/>
<path d="M451.685 75.8458L466.154 60H451.685V75.8458Z" fill="white"/>
<path d="M466.154 75.8458L451.685 91.6532V107.451H466.154V91.6532L480.667 75.8458V60H466.154V75.8458Z" fill="white"/>
<path d="M480.667 91.6532L466.154 107.451H480.667V91.6532Z" fill="white"/>
<path d="M18.78 80C23.7 80 27.48 81.16 30.12 83.48C32.76 85.8 34.08 89.02 34.08 93.14C34.08 96.06 33.4 98.56 32.04 100.64C30.68 102.68 28.72 104.2 26.16 105.2L34.44 120.02C34.56 120.26 34.62 120.48 34.62 120.68C34.62 121.04 34.48 121.36 34.2 121.64C33.96 121.88 33.66 122 33.3 122H28.2C27.04 122 26.18 121.46 25.62 120.38L17.76 106.4H9.77999V120.38C9.77999 120.82 9.61999 121.2 9.29999 121.52C8.97999 121.84 8.59999 122 8.15999 122H3.29999C2.85999 122 2.47999 121.84 2.15999 121.52C1.83999 121.2 1.67999 120.82 1.67999 120.38V81.62C1.67999 81.18 1.83999 80.8 2.15999 80.48C2.47999 80.16 2.85999 80 3.29999 80H18.78ZM18.48 98.9C20.92 98.9 22.78 98.48 24.06 97.64C25.34 96.76 25.98 95.26 25.98 93.14C25.98 91.02 25.34 89.56 24.06 88.76C22.82 87.92 20.96 87.5 18.48 87.5H9.77999V98.9H18.48ZM58.0753 79.4C63.6753 79.4 67.9553 80.9 70.9153 83.9C73.8753 86.9 75.4753 90.82 75.7153 95.66C75.7953 97.5 75.8353 99.1 75.8353 100.46C75.8353 102.26 75.7953 104.24 75.7153 106.4C75.4753 111.2 73.8753 115.1 70.9153 118.1C67.9553 121.1 63.6753 122.6 58.0753 122.6C52.4753 122.6 48.1953 121.1 45.2353 118.1C42.2753 115.1 40.6753 111.2 40.4353 106.4C40.3553 104.24 40.3153 102.26 40.3153 100.46C40.3153 99.1 40.3553 97.5 40.4353 95.66C40.6753 90.86 42.2753 86.96 45.2353 83.96C48.1953 80.92 52.4753 79.4 58.0753 79.4ZM58.0753 86.9C55.2753 86.9 53.0153 87.7 51.2953 89.3C49.6153 90.9 48.6953 93.12 48.5353 95.96C48.4553 97.96 48.4153 99.64 48.4153 101C48.4153 102.4 48.4553 104.1 48.5353 106.1C48.6953 108.94 49.6153 111.16 51.2953 112.76C53.0153 114.32 55.2753 115.1 58.0753 115.1C60.8753 115.1 63.1153 114.32 64.7953 112.76C66.5153 111.16 67.4553 108.94 67.6153 106.1C67.6953 105.1 67.7353 103.4 67.7353 101C67.7353 98.64 67.6953 96.96 67.6153 95.96C67.4553 93.12 66.5153 90.9 64.7953 89.3C63.1153 87.7 60.8753 86.9 58.0753 86.9ZM85.2727 122C84.8327 122 84.4527 121.84 84.1327 121.52C83.8127 121.2 83.6527 120.82 83.6527 120.38V81.62C83.6527 81.18 83.8127 80.8 84.1327 80.48C84.4527 80.16 84.8327 80 85.2727 80H102.973C106.133 80 108.713 80.62 110.713 81.86C112.753 83.1 114.213 84.62 115.093 86.42C116.013 88.22 116.473 90.02 116.473 91.82C116.473 93.9 116.013 95.64 115.093 97.04C114.173 98.4 113.253 99.38 112.333 99.98C113.773 100.94 114.953 102.22 115.873 103.82C116.833 105.38 117.313 107.24 117.313 109.4C117.313 111.48 116.793 113.5 115.753 115.46C114.753 117.38 113.273 118.96 111.313 120.2C109.353 121.4 107.033 122 104.353 122H85.2727ZM91.7527 87.5V96.74H102.373C104.413 96.74 105.913 96.36 106.873 95.6C107.873 94.84 108.373 93.68 108.373 92.12C108.373 90.56 107.873 89.4 106.873 88.64C105.913 87.88 104.413 87.5 102.373 87.5H91.7527ZM102.853 114.5C104.973 114.5 106.553 114.04 107.593 113.12C108.673 112.2 109.213 110.96 109.213 109.4C109.213 107.84 108.653 106.6 107.533 105.68C106.453 104.72 104.893 104.24 102.853 104.24H91.7527V114.5H102.853ZM140.985 79.4C146.585 79.4 150.865 80.9 153.825 83.9C156.785 86.9 158.385 90.82 158.625 95.66C158.705 97.5 158.745 99.1 158.745 100.46C158.745 102.26 158.705 104.24 158.625 106.4C158.385 111.2 156.785 115.1 153.825 118.1C150.865 121.1 146.585 122.6 140.985 122.6C135.385 122.6 131.105 121.1 128.145 118.1C125.185 115.1 123.585 111.2 123.345 106.4C123.265 104.24 123.225 102.26 123.225 100.46C123.225 99.1 123.265 97.5 123.345 95.66C123.585 90.86 125.185 86.96 128.145 83.96C131.105 80.92 135.385 79.4 140.985 79.4ZM140.985 86.9C138.185 86.9 135.925 87.7 134.205 89.3C132.525 90.9 131.605 93.12 131.445 95.96C131.365 97.96 131.325 99.64 131.325 101C131.325 102.4 131.365 104.1 131.445 106.1C131.605 108.94 132.525 111.16 134.205 112.76C135.925 114.32 138.185 115.1 140.985 115.1C143.785 115.1 146.025 114.32 147.705 112.76C149.425 111.16 150.365 108.94 150.525 106.1C150.605 105.1 150.645 103.4 150.645 101C150.645 98.64 150.605 96.96 150.525 95.96C150.365 93.12 149.425 90.9 147.705 89.3C146.025 87.7 143.785 86.9 140.985 86.9ZM193.703 80C194.142 80 194.522 80.16 194.843 80.48C195.162 80.8 195.322 81.18 195.322 81.62V85.88C195.322 86.32 195.162 86.7 194.843 87.02C194.522 87.34 194.142 87.5 193.703 87.5H182.902V120.38C182.902 120.82 182.743 121.2 182.423 121.52C182.103 121.84 181.722 122 181.283 122H176.423C175.983 122 175.603 121.84 175.283 121.52C174.963 121.2 174.803 120.82 174.803 120.38V87.5H164.002C163.563 87.5 163.182 87.34 162.862 87.02C162.543 86.7 162.382 86.32 162.382 85.88V81.62C162.382 81.18 162.543 80.8 162.862 80.48C163.182 80.16 163.563 80 164.002 80H193.703ZM202.929 122C202.489 122 202.109 121.84 201.789 121.52C201.469 121.2 201.309 120.82 201.309 120.38V81.62C201.309 81.18 201.469 80.8 201.789 80.48C202.109 80.16 202.489 80 202.929 80H207.789C208.229 80 208.609 80.16 208.929 80.48C209.249 80.8 209.409 81.18 209.409 81.62V120.38C209.409 120.82 209.249 121.2 208.929 121.52C208.609 121.84 208.229 122 207.789 122H202.929ZM251.17 107.12C251.65 107.12 252.05 107.28 252.37 107.6C252.69 107.88 252.83 108.26 252.79 108.74C252.63 111.06 251.89 113.28 250.57 115.4C249.29 117.52 247.33 119.26 244.69 120.62C242.09 121.94 238.83 122.6 234.91 122.6C229.55 122.6 225.35 121.1 222.31 118.1C219.27 115.06 217.59 111.04 217.27 106.04C217.19 104.04 217.15 102.36 217.15 101C217.15 99.64 217.19 97.96 217.27 95.96C217.59 90.96 219.27 86.96 222.31 83.96C225.35 80.92 229.55 79.4 234.91 79.4C238.83 79.4 242.09 80.08 244.69 81.44C247.33 82.76 249.29 84.48 250.57 86.6C251.89 88.72 252.63 90.94 252.79 93.26C252.83 93.74 252.69 94.14 252.37 94.46C252.05 94.74 251.65 94.88 251.17 94.88H246.31C245.91 94.88 245.53 94.74 245.17 94.46C244.81 94.18 244.59 93.8 244.51 93.32C244.19 91.52 243.23 90 241.63 88.76C240.07 87.52 237.83 86.9 234.91 86.9C231.95 86.9 229.65 87.74 228.01 89.42C226.41 91.1 225.53 93.28 225.37 95.96C225.29 97.96 225.25 99.64 225.25 101C225.25 102.36 225.29 104.04 225.37 106.04C225.53 108.72 226.41 110.9 228.01 112.58C229.65 114.26 231.95 115.1 234.91 115.1C237.83 115.1 240.09 114.48 241.69 113.24C243.29 112 244.25 110.48 244.57 108.68C244.65 108.2 244.85 107.82 245.17 107.54C245.53 107.26 245.91 107.12 246.31 107.12H251.17ZM290.625 90.44C290.665 90.92 290.525 91.32 290.205 91.64C289.885 91.92 289.485 92.06 289.005 92.06H284.805C284.165 92.06 283.665 91.94 283.305 91.7C282.945 91.46 282.625 91.1 282.345 90.62C281.665 89.5 280.685 88.6 279.405 87.92C278.125 87.24 276.385 86.9 274.185 86.9C272.025 86.9 270.205 87.34 268.725 88.22C267.245 89.1 266.505 90.28 266.505 91.76C266.505 92.96 266.845 93.9 267.525 94.58C268.245 95.22 269.345 95.76 270.825 96.2C272.305 96.64 274.725 97.22 278.085 97.94C282.925 98.98 286.425 100.44 288.585 102.32C290.745 104.2 291.825 106.78 291.825 110.06C291.825 112.46 291.125 114.62 289.725 116.54C288.325 118.42 286.305 119.9 283.665 120.98C281.065 122.06 278.005 122.6 274.485 122.6C271.485 122.6 268.685 122.12 266.085 121.16C263.485 120.2 261.385 118.84 259.785 117.08C258.185 115.28 257.325 113.24 257.205 110.96C257.165 110.48 257.305 110.1 257.625 109.82C257.945 109.5 258.345 109.34 258.825 109.34H263.025C263.665 109.34 264.165 109.46 264.525 109.7C264.925 109.94 265.245 110.3 265.485 110.78C266.165 112.1 267.145 113.16 268.425 113.96C269.745 114.72 271.765 115.1 274.485 115.1C277.125 115.1 279.325 114.68 281.085 113.84C282.845 113 283.725 111.74 283.725 110.06C283.725 109.1 283.385 108.34 282.705 107.78C282.025 107.18 281.065 106.7 279.825 106.34C278.585 105.94 276.705 105.44 274.185 104.84C273.185 104.64 271.885 104.34 270.285 103.94C266.085 102.9 263.045 101.48 261.165 99.68C259.325 97.88 258.405 95.24 258.405 91.76C258.405 89.4 259.085 87.28 260.445 85.4C261.845 83.52 263.745 82.06 266.145 81.02C268.545 79.94 271.225 79.4 274.185 79.4C277.545 79.4 280.445 79.98 282.885 81.14C285.365 82.26 287.245 83.68 288.525 85.4C289.805 87.12 290.505 88.8 290.625 90.44Z" fill="white"/>
<path d="M0.95501 71C0.69834 71 0.47668 70.9067 0.29001 70.72C0.10334 70.5333 0.0100098 70.3117 0.0100098 70.055V47.445C0.0100098 47.1883 0.10334 46.9667 0.29001 46.78C0.47668 46.5933 0.69834 46.5 0.95501 46.5H2.39001C2.64668 46.5 2.86834 46.5933 3.05501 46.78C3.24168 46.9667 3.33501 47.1883 3.33501 47.445V70.055C3.33501 70.3117 3.24168 70.5333 3.05501 70.72C2.86834 70.9067 2.64668 71 2.39001 71H0.95501ZM18.7561 46.5C21.2061 46.5 23.2244 47.1067 24.8111 48.32C26.3977 49.51 27.1911 51.3183 27.1911 53.745C27.1911 55.565 26.7361 57.0467 25.8261 58.19C24.9161 59.3333 23.6911 60.15 22.1511 60.64L27.4361 69.845C27.5061 69.985 27.5411 70.1133 27.5411 70.23C27.5411 70.44 27.4594 70.6267 27.2961 70.79C27.1561 70.93 26.9811 71 26.7711 71H25.2661C24.6127 71 24.1111 70.685 23.7611 70.055L18.6861 61.13H12.6661V70.055C12.6661 70.3117 12.5727 70.5333 12.3861 70.72C12.1994 70.9067 11.9777 71 11.7211 71H10.2861C10.0294 71 9.80771 70.9067 9.62111 70.72C9.43441 70.5333 9.34111 70.3117 9.34111 70.055V47.445C9.34111 47.1883 9.43441 46.9667 9.62111 46.78C9.80771 46.5933 10.0294 46.5 10.2861 46.5H18.7561ZM18.5811 57.98C22.1044 57.98 23.8661 56.5683 23.8661 53.745C23.8661 52.2983 23.4227 51.26 22.5361 50.63C21.6494 49.9767 20.3311 49.65 18.5811 49.65H12.6661V57.98H18.5811ZM46.4028 47.375C46.6128 46.7917 47.0678 46.5 47.7678 46.5H49.0628C49.2728 46.5 49.4478 46.5817 49.5878 46.745C49.7511 46.885 49.8328 47.06 49.8328 47.27C49.8328 47.3867 49.8094 47.5033 49.7628 47.62L42.2028 69.6C42.0628 70.0433 41.8294 70.3933 41.5028 70.65C41.1994 70.8833 40.8144 71 40.3478 71H38.9478C38.0378 71 37.4311 70.5333 37.1278 69.6L29.5328 47.62C29.4861 47.5033 29.4628 47.3867 29.4628 47.27C29.4628 47.06 29.5328 46.885 29.6728 46.745C29.8361 46.5817 30.0228 46.5 30.2328 46.5H31.5278C32.2278 46.5 32.6828 46.7917 32.8928 47.375L39.6478 67.5L46.4028 47.375ZM54.9589 71C54.7022 71 54.4806 70.9067 54.2939 70.72C54.1072 70.5333 54.0139 70.3117 54.0139 70.055V47.445C54.0139 47.1883 54.1072 46.9667 54.2939 46.78C54.4806 46.5933 54.7022 46.5 54.9589 46.5H56.3939C56.6506 46.5 56.8722 46.5933 57.0589 46.78C57.2456 46.9667 57.3389 47.1883 57.3389 47.445V70.055C57.3389 70.3117 57.2456 70.5333 57.0589 70.72C56.8722 70.9067 56.6506 71 56.3939 71H54.9589ZM79.445 71C79.1416 71 78.885 70.9067 78.675 70.72C78.465 70.5333 78.255 70.2767 78.045 69.95L66.67 52.835V70.055C66.67 70.3117 66.5766 70.5333 66.39 70.72C66.2033 70.9067 65.9816 71 65.725 71H64.29C64.0333 71 63.8116 70.9067 63.625 70.72C63.4383 70.5333 63.345 70.3117 63.345 70.055V47.445C63.345 47.1883 63.4383 46.9667 63.625 46.78C63.8116 46.5933 64.0333 46.5 64.29 46.5H65.515C65.8183 46.5 66.075 46.5933 66.285 46.78C66.495 46.9667 66.705 47.2233 66.915 47.55L78.29 64.665V47.445C78.29 47.1883 78.3833 46.9667 78.57 46.78C78.7566 46.5933 78.9783 46.5 79.235 46.5H80.67C80.9266 46.5 81.1483 46.5933 81.335 46.78C81.5216 46.9667 81.615 47.1883 81.615 47.445V70.055C81.615 70.3117 81.5216 70.5333 81.335 70.72C81.1483 70.9067 80.9266 71 80.67 71H79.445ZM96.7467 46.15C98.73 46.15 100.445 46.5233 101.892 47.27C103.338 47.9933 104.435 48.8917 105.182 49.965C105.952 51.015 106.36 51.995 106.407 52.905C106.43 53.115 106.36 53.3017 106.197 53.465C106.033 53.605 105.847 53.675 105.637 53.675H104.202C103.665 53.675 103.327 53.5467 103.187 53.29C102.51 51.9833 101.693 50.9917 100.737 50.315C99.803 49.6383 98.473 49.3 96.7467 49.3C94.7867 49.3 93.2001 49.86 91.9867 50.98C90.7734 52.0767 90.1317 53.6633 90.0617 55.74C90.0384 56.44 90.0267 57.4083 90.0267 58.645C90.0267 59.8817 90.0384 60.85 90.0617 61.55C90.1317 63.7433 90.7617 65.4 91.9517 66.52C93.1651 67.64 94.7634 68.2 96.7467 68.2C98.777 68.2 100.398 67.675 101.612 66.625C102.825 65.5517 103.432 63.8717 103.432 61.585V60.605H98.392C98.135 60.605 97.913 60.5117 97.727 60.325C97.54 60.1383 97.447 59.9167 97.447 59.66V58.4C97.447 58.1433 97.54 57.9217 97.727 57.735C97.913 57.5483 98.135 57.455 98.392 57.455H105.812C106.068 57.455 106.29 57.5483 106.477 57.735C106.663 57.9217 106.757 58.1433 106.757 58.4V61.725C106.757 63.5917 106.36 65.26 105.567 66.73C104.773 68.1767 103.618 69.3083 102.102 70.125C100.608 70.9417 98.823 71.35 96.7467 71.35C93.5267 71.35 91.0767 70.4633 89.3967 68.69C87.7167 66.8933 86.8301 64.5717 86.7367 61.725C86.7134 61.025 86.7017 59.9983 86.7017 58.645C86.7017 57.2917 86.7134 56.265 86.7367 55.565C86.8067 53.7683 87.2034 52.17 87.9267 50.77C88.6734 49.3467 89.7817 48.2267 91.2517 47.41C92.7451 46.57 94.5767 46.15 96.7467 46.15ZM126.386 46.5C126.642 46.5 126.864 46.5933 127.051 46.78C127.237 46.9667 127.331 47.1883 127.331 47.445V48.705C127.331 48.9617 127.237 49.1833 127.051 49.37C126.864 49.5567 126.642 49.65 126.386 49.65H119.841V70.055C119.841 70.3117 119.747 70.5333 119.561 70.72C119.374 70.9067 119.152 71 118.896 71H117.461C117.204 71 116.982 70.9067 116.796 70.72C116.609 70.5333 116.516 70.3117 116.516 70.055V49.65H109.971C109.714 49.65 109.492 49.5567 109.306 49.37C109.119 49.1833 109.026 48.9617 109.026 48.705V47.445C109.026 47.1883 109.119 46.9667 109.306 46.78C109.492 46.5933 109.714 46.5 109.971 46.5H126.386ZM139.326 46.15C141.31 46.15 143.025 46.57 144.471 47.41C145.918 48.25 147.015 49.3933 147.761 50.84C148.531 52.2633 148.94 53.8617 148.986 55.635C149.033 57.035 149.056 58.0733 149.056 58.75C149.056 59.4267 149.033 60.465 148.986 61.865C148.916 63.6383 148.496 65.2483 147.726 66.695C146.98 68.1183 145.883 69.25 144.436 70.09C143.013 70.93 141.31 71.35 139.326 71.35C137.343 71.35 135.628 70.93 134.181 70.09C132.758 69.25 131.661 68.1183 130.891 66.695C130.145 65.2483 129.736 63.6383 129.666 61.865C129.643 61.165 129.631 60.1267 129.631 58.75C129.631 57.3733 129.643 56.335 129.666 55.635C129.713 53.8617 130.11 52.2633 130.856 50.84C131.626 49.3933 132.735 48.25 134.181 47.41C135.628 46.57 137.343 46.15 139.326 46.15ZM139.326 49.3C137.46 49.3 135.955 49.8483 134.811 50.945C133.668 52.0417 133.061 53.6633 132.991 55.81C132.968 56.51 132.956 57.49 132.956 58.75C132.956 60.01 132.968 60.99 132.991 61.69C133.061 63.8367 133.668 65.4583 134.811 66.555C135.955 67.6517 137.46 68.2 139.326 68.2C141.193 68.2 142.698 67.6517 143.841 66.555C144.985 65.4583 145.591 63.8367 145.661 61.69C145.708 60.29 145.731 59.31 145.731 58.75C145.731 58.19 145.708 57.21 145.661 55.81C145.591 53.6633 144.985 52.0417 143.841 50.945C142.698 49.8483 141.193 49.3 139.326 49.3ZM170.192 71C169.889 71 169.632 70.9067 169.422 70.72C169.212 70.5333 169.002 70.2767 168.792 69.95L157.417 52.835V70.055C157.417 70.3117 157.324 70.5333 157.137 70.72C156.95 70.9067 156.729 71 156.472 71H155.037C154.78 71 154.559 70.9067 154.372 70.72C154.185 70.5333 154.092 70.3117 154.092 70.055V47.445C154.092 47.1883 154.185 46.9667 154.372 46.78C154.559 46.5933 154.78 46.5 155.037 46.5H156.262C156.565 46.5 156.822 46.5933 157.032 46.78C157.242 46.9667 157.452 47.2233 157.662 47.55L169.037 64.665V47.445C169.037 47.1883 169.13 46.9667 169.317 46.78C169.504 46.5933 169.725 46.5 169.982 46.5H171.417C171.674 46.5 171.895 46.5933 172.082 46.78C172.269 46.9667 172.362 47.1883 172.362 47.445V70.055C172.362 70.3117 172.269 70.5333 172.082 70.72C171.895 70.9067 171.674 71 171.417 71H170.192Z" fill="white"/>
<path d="M88.44 31C88.3067 31 88.2 30.96 88.12 30.88C88.04 30.8 88 30.6933 88 30.56V17.24C88 17.1067 88.04 17 88.12 16.92C88.2 16.84 88.3067 16.8 88.44 16.8H88.78C88.9133 16.8 89.02 16.84 89.1 16.92C89.18 17 89.22 17.1067 89.22 17.24V18.18C89.9933 17.1267 91.1133 16.6 92.58 16.6C94.02 16.6 95.0833 17.0567 95.77 17.97C96.4567 18.8833 96.82 20.0067 96.86 21.34C96.8733 21.4733 96.88 21.6933 96.88 22C96.88 22.3067 96.8733 22.5267 96.86 22.66C96.82 23.9933 96.4567 25.1167 95.77 26.03C95.0833 26.9433 94.02 27.4 92.58 27.4C91.1267 27.4 90.0067 26.8733 89.22 25.82V30.56C89.22 30.6933 89.18 30.8 89.1 30.88C89.02 30.96 88.9133 31 88.78 31H88.44ZM92.46 26.24C93.54 26.24 94.33 25.8967 94.83 25.21C95.33 24.5233 95.6 23.64 95.64 22.56C95.6533 22.4267 95.66 22.24 95.66 22C95.66 20.76 95.42 19.7433 94.94 18.95C94.46 18.1567 93.6333 17.76 92.46 17.76C91.4067 17.76 90.6133 18.11 90.08 18.81C89.5467 19.51 89.26 20.3333 89.22 21.28L89.2 22.06L89.22 22.84C89.2333 23.4133 89.36 23.9567 89.6 24.47C89.84 24.9833 90.2 25.4067 90.68 25.74C91.16 26.0733 91.7533 26.24 92.46 26.24ZM100.04 27.2C99.9067 27.2 99.8 27.16 99.72 27.08C99.64 27 99.6 26.8933 99.6 26.76V17.26C99.6 17.1267 99.64 17.0167 99.72 16.93C99.8 16.8433 99.9067 16.8 100.04 16.8H100.36C100.493 16.8 100.603 16.8433 100.69 16.93C100.777 17.0167 100.82 17.1267 100.82 17.26V18.18C101.3 17.26 102.207 16.8 103.54 16.8H104.28C104.413 16.8 104.52 16.84 104.6 16.92C104.68 17 104.72 17.1067 104.72 17.24V17.52C104.72 17.6533 104.68 17.76 104.6 17.84C104.52 17.92 104.413 17.96 104.28 17.96H103.42C102.62 17.96 101.987 18.1933 101.52 18.66C101.053 19.1267 100.82 19.76 100.82 20.56V26.76C100.82 26.8933 100.777 27 100.69 27.08C100.603 27.16 100.493 27.2 100.36 27.2H100.04ZM110.18 27.4C108.913 27.4 107.893 26.9833 107.12 26.15C106.347 25.3167 105.907 24.2 105.8 22.8L105.78 22L105.8 21.2C105.907 19.8133 106.343 18.7 107.11 17.86C107.877 17.02 108.9 16.6 110.18 16.6C111.567 16.6 112.65 17.06 113.43 17.98C114.21 18.9 114.6 20.16 114.6 21.76V22.06C114.6 22.1933 114.557 22.3 114.47 22.38C114.383 22.46 114.273 22.5 114.14 22.5H107.02V22.7C107.047 23.3267 107.19 23.91 107.45 24.45C107.71 24.99 108.073 25.4233 108.54 25.75C109.007 26.0767 109.553 26.24 110.18 26.24C110.913 26.24 111.51 26.0967 111.97 25.81C112.43 25.5233 112.76 25.2333 112.96 24.94C113.08 24.78 113.17 24.68 113.23 24.64C113.29 24.6 113.4 24.58 113.56 24.58H113.88C114 24.58 114.1 24.6133 114.18 24.68C114.26 24.7467 114.3 24.8333 114.3 24.94C114.3 25.22 114.123 25.5567 113.77 25.95C113.417 26.3433 112.927 26.6833 112.3 26.97C111.673 27.2567 110.967 27.4 110.18 27.4ZM113.38 21.38V21.3C113.38 20.2733 113.09 19.4267 112.51 18.76C111.93 18.0933 111.153 17.76 110.18 17.76C109.207 17.76 108.437 18.0933 107.87 18.76C107.303 19.4267 107.02 20.2733 107.02 21.3V21.38H113.38ZM120.54 27.4C119.673 27.4 118.943 27.2533 118.35 26.96C117.757 26.6667 117.31 26.3333 117.01 25.96C116.71 25.5867 116.56 25.2867 116.56 25.06C116.56 24.94 116.607 24.8433 116.7 24.77C116.793 24.6967 116.893 24.66 117 24.66H117.3C117.393 24.66 117.47 24.6767 117.53 24.71C117.59 24.7433 117.66 24.8133 117.74 24.92C118.033 25.3333 118.39 25.6567 118.81 25.89C119.23 26.1233 119.807 26.24 120.54 26.24C121.367 26.24 122.033 26.0833 122.54 25.77C123.047 25.4567 123.3 25.0067 123.3 24.42C123.3 24.06 123.197 23.7667 122.99 23.54C122.783 23.3133 122.45 23.1167 121.99 22.95C121.53 22.7833 120.847 22.5933 119.94 22.38C118.753 22.1133 117.943 21.7467 117.51 21.28C117.077 20.8133 116.86 20.22 116.86 19.5C116.86 19.0067 116.997 18.54 117.27 18.1C117.543 17.66 117.95 17.3 118.49 17.02C119.03 16.74 119.68 16.6 120.44 16.6C121.24 16.6 121.917 16.7367 122.47 17.01C123.023 17.2833 123.437 17.6 123.71 17.96C123.983 18.32 124.12 18.6133 124.12 18.84C124.12 18.96 124.077 19.0567 123.99 19.13C123.903 19.2033 123.8 19.24 123.68 19.24H123.38C123.193 19.24 123.047 19.1533 122.94 18.98C122.673 18.58 122.37 18.2767 122.03 18.07C121.69 17.8633 121.16 17.76 120.44 17.76C119.667 17.76 119.08 17.92 118.68 18.24C118.28 18.56 118.08 18.98 118.08 19.5C118.08 19.82 118.16 20.0867 118.32 20.3C118.48 20.5133 118.78 20.71 119.22 20.89C119.66 21.07 120.3 21.2533 121.14 21.44C122.38 21.72 123.253 22.0933 123.76 22.56C124.267 23.0267 124.52 23.6467 124.52 24.42C124.52 24.9667 124.367 25.4667 124.06 25.92C123.753 26.3733 123.3 26.7333 122.7 27C122.1 27.2667 121.38 27.4 120.54 27.4ZM130.94 27.4C129.673 27.4 128.653 26.9833 127.88 26.15C127.107 25.3167 126.667 24.2 126.56 22.8L126.54 22L126.56 21.2C126.667 19.8133 127.103 18.7 127.87 17.86C128.637 17.02 129.66 16.6 130.94 16.6C132.327 16.6 133.41 17.06 134.19 17.98C134.97 18.9 135.36 20.16 135.36 21.76V22.06C135.36 22.1933 135.317 22.3 135.23 22.38C135.143 22.46 135.033 22.5 134.9 22.5H127.78V22.7C127.807 23.3267 127.95 23.91 128.21 24.45C128.47 24.99 128.833 25.4233 129.3 25.75C129.767 26.0767 130.313 26.24 130.94 26.24C131.673 26.24 132.27 26.0967 132.73 25.81C133.19 25.5233 133.52 25.2333 133.72 24.94C133.84 24.78 133.93 24.68 133.99 24.64C134.05 24.6 134.16 24.58 134.32 24.58H134.64C134.76 24.58 134.86 24.6133 134.94 24.68C135.02 24.7467 135.06 24.8333 135.06 24.94C135.06 25.22 134.883 25.5567 134.53 25.95C134.177 26.3433 133.687 26.6833 133.06 26.97C132.433 27.2567 131.727 27.4 130.94 27.4ZM134.14 21.38V21.3C134.14 20.2733 133.85 19.4267 133.27 18.76C132.69 18.0933 131.913 17.76 130.94 17.76C129.967 17.76 129.197 18.0933 128.63 18.76C128.063 19.4267 127.78 20.2733 127.78 21.3V21.38H134.14ZM138.44 27.2C138.307 27.2 138.2 27.16 138.12 27.08C138.04 27 138 26.8933 138 26.76V17.24C138 17.1067 138.04 17 138.12 16.92C138.2 16.84 138.307 16.8 138.44 16.8H138.78C138.913 16.8 139.02 16.84 139.1 16.92C139.18 17 139.22 17.1067 139.22 17.24V18.18C139.62 17.66 140.077 17.2667 140.59 17C141.103 16.7333 141.767 16.6 142.58 16.6C143.887 16.6 144.893 17.0167 145.6 17.85C146.307 18.6833 146.66 19.76 146.66 21.08V26.76C146.66 26.8933 146.62 27 146.54 27.08C146.46 27.16 146.353 27.2 146.22 27.2H145.88C145.747 27.2 145.64 27.16 145.56 27.08C145.48 27 145.44 26.8933 145.44 26.76V21.18C145.44 20.1 145.177 19.26 144.65 18.66C144.123 18.06 143.367 17.76 142.38 17.76C141.42 17.76 140.653 18.0633 140.08 18.67C139.507 19.2767 139.22 20.1133 139.22 21.18V26.76C139.22 26.8933 139.18 27 139.1 27.08C139.02 27.16 138.913 27.2 138.78 27.2H138.44ZM153.14 27.2C152.153 27.2 151.453 26.9033 151.04 26.31C150.627 25.7167 150.42 24.9 150.42 23.86V17.96H148.86C148.727 17.96 148.62 17.92 148.54 17.84C148.46 17.76 148.42 17.6533 148.42 17.52V17.24C148.42 17.1067 148.46 17 148.54 16.92C148.62 16.84 148.727 16.8 148.86 16.8H150.42V13.44C150.42 13.3067 150.46 13.2 150.54 13.12C150.62 13.04 150.727 13 150.86 13H151.2C151.333 13 151.44 13.04 151.52 13.12C151.6 13.2 151.64 13.3067 151.64 13.44V16.8H154.12C154.253 16.8 154.36 16.84 154.44 16.92C154.52 17 154.56 17.1067 154.56 17.24V17.52C154.56 17.6533 154.52 17.76 154.44 17.84C154.36 17.92 154.253 17.96 154.12 17.96H151.64V23.78C151.64 24.5267 151.763 25.09 152.01 25.47C152.257 25.85 152.667 26.04 153.24 26.04H154.32C154.453 26.04 154.56 26.08 154.64 26.16C154.72 26.24 154.76 26.3467 154.76 26.48V26.76C154.76 26.8933 154.72 27 154.64 27.08C154.56 27.16 154.453 27.2 154.32 27.2H153.14ZM160.68 27.4C159.413 27.4 158.393 26.9833 157.62 26.15C156.847 25.3167 156.407 24.2 156.3 22.8L156.28 22L156.3 21.2C156.407 19.8133 156.843 18.7 157.61 17.86C158.377 17.02 159.4 16.6 160.68 16.6C162.067 16.6 163.15 17.06 163.93 17.98C164.71 18.9 165.1 20.16 165.1 21.76V22.06C165.1 22.1933 165.057 22.3 164.97 22.38C164.883 22.46 164.773 22.5 164.64 22.5H157.52V22.7C157.547 23.3267 157.69 23.91 157.95 24.45C158.21 24.99 158.573 25.4233 159.04 25.75C159.507 26.0767 160.053 26.24 160.68 26.24C161.413 26.24 162.01 26.0967 162.47 25.81C162.93 25.5233 163.26 25.2333 163.46 24.94C163.58 24.78 163.67 24.68 163.73 24.64C163.79 24.6 163.9 24.58 164.06 24.58H164.38C164.5 24.58 164.6 24.6133 164.68 24.68C164.76 24.7467 164.8 24.8333 164.8 24.94C164.8 25.22 164.623 25.5567 164.27 25.95C163.917 26.3433 163.427 26.6833 162.8 26.97C162.173 27.2567 161.467 27.4 160.68 27.4ZM163.88 21.38V21.3C163.88 20.2733 163.59 19.4267 163.01 18.76C162.43 18.0933 161.653 17.76 160.68 17.76C159.707 17.76 158.937 18.0933 158.37 18.76C157.803 19.4267 157.52 20.2733 157.52 21.3V21.38H163.88ZM171.5 27.4C170.06 27.4 168.997 26.93 168.31 25.99C167.623 25.05 167.26 23.9067 167.22 22.56L167.2 22L167.22 21.44C167.26 20.0933 167.623 18.95 168.31 18.01C168.997 17.07 170.06 16.6 171.5 16.6C172.953 16.6 174.073 17.1267 174.86 18.18V13.44C174.86 13.3067 174.9 13.2 174.98 13.12C175.06 13.04 175.167 13 175.3 13H175.64C175.773 13 175.88 13.04 175.96 13.12C176.04 13.2 176.08 13.3067 176.08 13.44V26.76C176.08 26.8933 176.04 27 175.96 27.08C175.88 27.16 175.773 27.2 175.64 27.2H175.3C175.167 27.2 175.06 27.16 174.98 27.08C174.9 27 174.86 26.8933 174.86 26.76V25.82C174.087 26.8733 172.967 27.4 171.5 27.4ZM171.62 26.24C172.673 26.24 173.467 25.89 174 25.19C174.533 24.49 174.82 23.6667 174.86 22.72C174.873 22.5867 174.88 22.3267 174.88 21.94C174.88 21.5533 174.873 21.2933 174.86 21.16C174.847 20.5867 174.72 20.0433 174.48 19.53C174.24 19.0167 173.88 18.5933 173.4 18.26C172.92 17.9267 172.327 17.76 171.62 17.76C170.54 17.76 169.75 18.1033 169.25 18.79C168.75 19.4767 168.48 20.36 168.44 21.44L168.42 22C168.42 23.24 168.66 24.2567 169.14 25.05C169.62 25.8433 170.447 26.24 171.62 26.24ZM189.1 27.4C187.633 27.4 186.513 26.8733 185.74 25.82V26.76C185.74 26.8933 185.7 27 185.62 27.08C185.54 27.16 185.433 27.2 185.3 27.2H184.96C184.827 27.2 184.72 27.16 184.64 27.08C184.56 27 184.52 26.8933 184.52 26.76V13.44C184.52 13.3067 184.56 13.2 184.64 13.12C184.72 13.04 184.827 13 184.96 13H185.3C185.433 13 185.54 13.04 185.62 13.12C185.7 13.2 185.74 13.3067 185.74 13.44V18.18C186.527 17.1267 187.647 16.6 189.1 16.6C190.54 16.6 191.603 17.07 192.29 18.01C192.977 18.95 193.34 20.0933 193.38 21.44C193.393 21.5733 193.4 21.76 193.4 22C193.4 22.24 193.393 22.4267 193.38 22.56C193.34 23.9067 192.977 25.05 192.29 25.99C191.603 26.93 190.54 27.4 189.1 27.4ZM188.98 26.24C190.06 26.24 190.85 25.8967 191.35 25.21C191.85 24.5233 192.12 23.64 192.16 22.56C192.173 22.4267 192.18 22.24 192.18 22C192.18 20.76 191.94 19.7433 191.46 18.95C190.98 18.1567 190.153 17.76 188.98 17.76C188.273 17.76 187.68 17.9267 187.2 18.26C186.72 18.5933 186.36 19.0167 186.12 19.53C185.88 20.0433 185.753 20.5867 185.74 21.16L185.72 21.94L185.74 22.72C185.78 23.6667 186.067 24.49 186.6 25.19C187.133 25.89 187.927 26.24 188.98 26.24ZM197.48 31C197.373 31 197.28 30.96 197.2 30.88C197.12 30.8 197.08 30.7067 197.08 30.6C197.08 30.5333 197.12 30.4 197.2 30.2L198.74 26.6L194.92 17.6C194.84 17.4 194.8 17.2667 194.8 17.2C194.8 17.0933 194.84 17 194.92 16.92C195 16.84 195.093 16.8 195.2 16.8H195.62C195.833 16.8 195.987 16.9 196.08 17.1L199.44 25.02L202.88 17.1C202.987 16.9 203.14 16.8 203.34 16.8H203.74C203.847 16.8 203.94 16.84 204.02 16.92C204.1 17 204.14 17.0933 204.14 17.2C204.14 17.2667 204.1 17.4 204.02 17.6L198.34 30.7C198.247 30.9 198.093 31 197.88 31H197.48Z" fill="white"/>
<path d="M404.08 29C403.947 29 403.84 28.96 403.76 28.88C403.68 28.8 403.64 28.6933 403.64 28.56V15.24C403.64 15.1067 403.68 15 403.76 14.92C403.84 14.84 403.947 14.8 404.08 14.8H404.42C404.553 14.8 404.66 14.84 404.74 14.92C404.82 15 404.86 15.1067 404.86 15.24V19.98C405.26 19.46 405.713 19.0667 406.22 18.8C406.74 18.5333 407.407 18.4 408.22 18.4C409.527 18.4 410.533 18.82 411.24 19.66C411.947 20.4867 412.3 21.56 412.3 22.88V28.56C412.3 28.6933 412.26 28.8 412.18 28.88C412.1 28.96 411.993 29 411.86 29H411.52C411.387 29 411.28 28.96 411.2 28.88C411.12 28.8 411.08 28.6933 411.08 28.56V22.98C411.08 21.9 410.813 21.06 410.28 20.46C409.76 19.86 409.007 19.56 408.02 19.56C407.06 19.56 406.293 19.8667 405.72 20.48C405.147 21.08 404.86 21.9133 404.86 22.98V28.56C404.86 28.6933 404.82 28.8 404.74 28.88C404.66 28.96 404.553 29 404.42 29H404.08Z" fill="white"/>
<path d="M419.396 29.2C418.01 29.2 416.93 28.78 416.156 27.94C415.396 27.0867 414.996 25.9867 414.956 24.64L414.936 23.8L414.956 22.96C414.996 21.6133 415.396 20.52 416.156 19.68C416.93 18.8267 418.01 18.4 419.396 18.4C420.783 18.4 421.856 18.8267 422.616 19.68C423.39 20.52 423.796 21.6133 423.836 22.96C423.85 23.0933 423.856 23.3733 423.856 23.8C423.856 24.2267 423.85 24.5067 423.836 24.64C423.796 25.9867 423.39 27.0867 422.616 27.94C421.856 28.78 420.783 29.2 419.396 29.2ZM419.396 28.04C420.343 28.04 421.103 27.74 421.676 27.14C422.263 26.5267 422.576 25.66 422.616 24.54C422.63 24.4067 422.636 24.16 422.636 23.8C422.636 23.44 422.63 23.1933 422.616 23.06C422.576 21.94 422.263 21.08 421.676 20.48C421.103 19.8667 420.343 19.56 419.396 19.56C418.45 19.56 417.683 19.8667 417.096 20.48C416.523 21.08 416.216 21.94 416.176 23.06L416.156 23.8L416.176 24.54C416.216 25.66 416.523 26.5267 417.096 27.14C417.683 27.74 418.45 28.04 419.396 28.04Z" fill="white"/>
<path d="M429.889 29.2C429.022 29.2 428.289 29.0533 427.689 28.76C427.102 28.4667 426.655 28.1333 426.349 27.76C426.055 27.3867 425.909 27.0867 425.909 26.86C425.909 26.74 425.955 26.6467 426.049 26.58C426.142 26.5 426.242 26.46 426.349 26.46H426.649C426.742 26.46 426.815 26.48 426.869 26.52C426.935 26.5467 427.009 26.6133 427.089 26.72C427.382 27.1333 427.735 27.46 428.149 27.7C428.575 27.9267 429.155 28.04 429.889 28.04C430.715 28.04 431.382 27.8867 431.889 27.58C432.395 27.26 432.649 26.8067 432.649 26.22C432.649 25.86 432.542 25.5667 432.329 25.34C432.129 25.1133 431.795 24.92 431.329 24.76C430.875 24.5867 430.195 24.3933 429.289 24.18C428.102 23.9133 427.289 23.5467 426.849 23.08C426.422 22.6133 426.209 22.02 426.209 21.3C426.209 20.8067 426.342 20.34 426.609 19.9C426.889 19.46 427.295 19.1 427.829 18.82C428.375 18.54 429.029 18.4 429.789 18.4C430.589 18.4 431.262 18.54 431.809 18.82C432.369 19.0867 432.782 19.4 433.049 19.76C433.329 20.12 433.469 20.4133 433.469 20.64C433.469 20.76 433.422 20.86 433.329 20.94C433.249 21.0067 433.149 21.04 433.029 21.04H432.729C432.542 21.04 432.395 20.9533 432.289 20.78C432.022 20.38 431.715 20.08 431.369 19.88C431.035 19.6667 430.509 19.56 429.789 19.56C429.015 19.56 428.429 19.72 428.029 20.04C427.629 20.36 427.429 20.78 427.429 21.3C427.429 21.62 427.509 21.8867 427.669 22.1C427.829 22.3133 428.129 22.5133 428.569 22.7C429.009 22.8733 429.649 23.0533 430.489 23.24C431.729 23.52 432.602 23.8933 433.109 24.36C433.615 24.8267 433.869 25.4467 433.869 26.22C433.869 26.7667 433.715 27.2667 433.409 27.72C433.102 28.1733 432.649 28.5333 432.049 28.8C431.449 29.0667 430.729 29.2 429.889 29.2Z" fill="white"/>
<path d="M439.933 29C438.946 29 438.246 28.7067 437.833 28.12C437.419 27.52 437.213 26.7 437.213 25.66V19.76H435.653C435.519 19.76 435.413 19.72 435.333 19.64C435.253 19.56 435.213 19.4533 435.213 19.32V19.04C435.213 18.9067 435.253 18.8 435.333 18.72C435.413 18.64 435.519 18.6 435.653 18.6H437.213V15.24C437.213 15.1067 437.253 15 437.333 14.92C437.413 14.84 437.519 14.8 437.653 14.8H437.993C438.126 14.8 438.233 14.84 438.313 14.92C438.393 15 438.433 15.1067 438.433 15.24V18.6H440.913C441.046 18.6 441.153 18.64 441.233 18.72C441.313 18.8 441.353 18.9067 441.353 19.04V19.32C441.353 19.4533 441.313 19.56 441.233 19.64C441.153 19.72 441.046 19.76 440.913 19.76H438.433V25.58C438.433 26.3267 438.553 26.8933 438.793 27.28C439.046 27.6533 439.459 27.84 440.033 27.84H441.113C441.246 27.84 441.353 27.88 441.433 27.96C441.513 28.04 441.553 28.1467 441.553 28.28V28.56C441.553 28.6933 441.513 28.8 441.433 28.88C441.353 28.96 441.246 29 441.113 29H439.933Z" fill="white"/>
<path d="M447.48 29.2C446.213 29.2 445.193 28.7867 444.42 27.96C443.647 27.12 443.207 26 443.1 24.6L443.08 23.8L443.1 23C443.207 21.6133 443.64 20.5 444.4 19.66C445.173 18.82 446.2 18.4 447.48 18.4C448.867 18.4 449.947 18.86 450.72 19.78C451.507 20.7 451.9 21.96 451.9 23.56V23.86C451.9 23.9933 451.853 24.1 451.76 24.18C451.68 24.26 451.573 24.3 451.44 24.3H444.32V24.5C444.347 25.1267 444.487 25.7133 444.74 26.26C445.007 26.7933 445.373 27.2267 445.84 27.56C446.307 27.88 446.853 28.04 447.48 28.04C448.213 28.04 448.807 27.9 449.26 27.62C449.727 27.3267 450.06 27.0333 450.26 26.74C450.38 26.58 450.467 26.48 450.52 26.44C450.587 26.4 450.7 26.38 450.86 26.38H451.18C451.3 26.38 451.4 26.4133 451.48 26.48C451.56 26.5467 451.6 26.6333 451.6 26.74C451.6 27.02 451.42 27.36 451.06 27.76C450.713 28.1467 450.227 28.4867 449.6 28.78C448.973 29.06 448.267 29.2 447.48 29.2ZM450.68 23.18V23.1C450.68 22.0733 450.387 21.2267 449.8 20.56C449.227 19.8933 448.453 19.56 447.48 19.56C446.507 19.56 445.733 19.8933 445.16 20.56C444.6 21.2267 444.32 22.0733 444.32 23.1V23.18H450.68Z" fill="white"/>
<path d="M458.298 29.2C456.858 29.2 455.791 28.7333 455.098 27.8C454.418 26.8533 454.058 25.7067 454.018 24.36L453.998 23.8L454.018 23.24C454.058 21.8933 454.418 20.7533 455.098 19.82C455.791 18.8733 456.858 18.4 458.298 18.4C459.751 18.4 460.871 18.9267 461.658 19.98V15.24C461.658 15.1067 461.698 15 461.778 14.92C461.858 14.84 461.965 14.8 462.098 14.8H462.438C462.571 14.8 462.678 14.84 462.758 14.92C462.838 15 462.878 15.1067 462.878 15.24V28.56C462.878 28.6933 462.838 28.8 462.758 28.88C462.678 28.96 462.571 29 462.438 29H462.098C461.965 29 461.858 28.96 461.778 28.88C461.698 28.8 461.658 28.6933 461.658 28.56V27.62C460.885 28.6733 459.765 29.2 458.298 29.2ZM458.418 28.04C459.471 28.04 460.265 27.6933 460.798 27C461.331 26.2933 461.618 25.4667 461.658 24.52C461.671 24.3867 461.678 24.1267 461.678 23.74C461.678 23.3533 461.671 23.0933 461.658 22.96C461.645 22.3867 461.518 21.8467 461.278 21.34C461.038 20.82 460.678 20.3933 460.198 20.06C459.718 19.7267 459.125 19.56 458.418 19.56C457.338 19.56 456.545 19.9067 456.038 20.6C455.545 21.28 455.278 22.16 455.238 23.24L455.218 23.8C455.218 25.04 455.458 26.06 455.938 26.86C456.418 27.6467 457.245 28.04 458.418 28.04Z" fill="white"/>
<path d="M474.096 29.2C473.456 29.2 472.862 29.0667 472.316 28.8C471.769 28.5333 471.329 28.1733 470.996 27.72C470.676 27.2667 470.516 26.7667 470.516 26.22C470.516 25.34 470.869 24.62 471.576 24.06C472.296 23.5 473.262 23.14 474.476 22.98L477.636 22.54V21.84C477.636 21.1067 477.409 20.5467 476.956 20.16C476.516 19.76 475.836 19.56 474.916 19.56C474.236 19.56 473.676 19.6933 473.236 19.96C472.809 20.2267 472.536 20.5467 472.416 20.92C472.362 21.08 472.296 21.1933 472.216 21.26C472.149 21.3133 472.056 21.34 471.936 21.34H471.656C471.536 21.34 471.429 21.3 471.336 21.22C471.256 21.1267 471.216 21.02 471.216 20.9C471.216 20.6067 471.349 20.2667 471.616 19.88C471.882 19.48 472.296 19.1333 472.856 18.84C473.416 18.5467 474.102 18.4 474.916 18.4C476.342 18.4 477.356 18.74 477.956 19.42C478.556 20.1 478.856 20.9267 478.856 21.9V28.56C478.856 28.6933 478.816 28.8 478.736 28.88C478.656 28.96 478.549 29 478.416 29H478.076C477.942 29 477.836 28.96 477.756 28.88C477.676 28.8 477.636 28.6933 477.636 28.56V27.62C477.342 28.06 476.909 28.4333 476.336 28.74C475.776 29.0467 475.029 29.2 474.096 29.2ZM474.296 28.04C475.269 28.04 476.069 27.72 476.696 27.08C477.322 26.44 477.636 25.52 477.636 24.32V23.64L475.056 24C473.962 24.1467 473.136 24.4 472.576 24.76C472.016 25.12 471.736 25.5733 471.736 26.12C471.736 26.7333 471.989 27.2067 472.496 27.54C473.016 27.8733 473.616 28.04 474.296 28.04Z" fill="white"/>
<path d="M485.421 29C484.434 29 483.734 28.7067 483.321 28.12C482.907 27.52 482.701 26.7 482.701 25.66V19.76H481.141C481.007 19.76 480.901 19.72 480.821 19.64C480.741 19.56 480.701 19.4533 480.701 19.32V19.04C480.701 18.9067 480.741 18.8 480.821 18.72C480.901 18.64 481.007 18.6 481.141 18.6H482.701V15.24C482.701 15.1067 482.741 15 482.821 14.92C482.901 14.84 483.007 14.8 483.141 14.8H483.481C483.614 14.8 483.721 14.84 483.801 14.92C483.881 15 483.921 15.1067 483.921 15.24V18.6H486.401C486.534 18.6 486.641 18.64 486.721 18.72C486.801 18.8 486.841 18.9067 486.841 19.04V19.32C486.841 19.4533 486.801 19.56 486.721 19.64C486.641 19.72 486.534 19.76 486.401 19.76H483.921V25.58C483.921 26.3267 484.041 26.8933 484.281 27.28C484.534 27.6533 484.947 27.84 485.521 27.84H486.601C486.734 27.84 486.841 27.88 486.921 27.96C487.001 28.04 487.041 28.1467 487.041 28.28V28.56C487.041 28.6933 487.001 28.8 486.921 28.88C486.841 28.96 486.734 29 486.601 29H485.421Z" fill="white"/>
<line x1="341" y1="4.37114e-08" x2="341" y2="142" stroke="white" stroke-width="2"/>
</svg>
